<?xml version="1.0" encoding="UTF-8"?>
<svg xmlns="http://www.w3.org/2000/svg" xmlns:xlink="http://www.w3.org/1999/xlink" width="32pt" height="32pt" viewBox="0 0 32 32" version="1.1">
<path style="fill:#010101; stroke:none;" d="M0 0L0 18L5 18L5 17L1 17C1.03909 12.6818 1.03201 9.31814 5 7L5 6C2.68318 4.61741 2.03738 3.51335 1 1C7.39395 3.07627 14.5288 4.24113 19.9105 8.5679C22.4498 10.6095 24.1809 13.344 26 16C27.6436 14.0002 28.7666 12.3196 31 11L31 18L32 18L32 0L0 0z"/>
<path style="fill:#ff6943; stroke:none;" d="M1 1C1.7109 3.88468 2.11501 5.161 5 6L5 7C0.467199 8.59387 1.01216 12.7619 1 17L5 17L5 18L0 18L0 19C3.94192 20.065 7.175 19.2744 11 18C11.376 22.6443 12.2868 25.7352 10 30L19 31.7801C23.2215 32.4202 27.7381 32 32 32L31 11C28.1468 11.8269 27.4978 13.4542 26 16C21.1244 5.78165 11.2135 3.36261 1 1z"/>
<path style="fill:#010101; stroke:none;" d="M0 19L0 32L17 32L17 31C14.3862 29.9978 12.7732 29.6783 10 30C12.6899 25.7815 11.6339 22.7348 11 18C7.15083 18.6683 3.90319 19.6893 0 19z"/>
</svg>
